<svg xmlns="http://www.w3.org/2000/svg" viewBox="0 0 652 652"><g id="Layer_2" data-name="Layer 2"><g id="Layer_3" data-name="Layer 3"><path d="M326,20c169,0,306,137,306,306S495,632,326,632a304.93,304.93,0,0,1-121-24.88l89.18-75.56L291.5,466.5,146.87,574.12C70,518.53,20,428.11,20,326,20,157,157,20,326,20m0-20A326,326,0,0,0,36.89,476.77a328.77,328.77,0,0,0,98.26,113.56L147,598.92l11.77-8.75,114.24-85,.7,17.45L192,591.86l-24.61,20.85L197,625.48a326,326,0,0,0,359.49-530A325.11,325.11,0,0,0,326,0Z"/><polygon points="485.31 143.36 484.25 170.46 408.99 170.05 408.63 430.91 302.58 527.71 300.33 459.45 346.7 420.84 347.38 188.42 346.79 169.72 295.94 169.44 296.23 385.85 236.96 385.85 236.96 178.82 218.18 178.82 218.18 385.85 201.68 385.85 201.68 143.36 485.31 143.36"/></g></g></svg>