<svg xmlns="http://www.w3.org/2000/svg" viewBox="0 0 612 612"><defs><style>.cls-1{fill:#fff;}</style></defs><g id="Layer_2" data-name="Layer 2"><g id="Layer_3" data-name="Layer 3"><path class="cls-1" d="M306,0C137,0,0,137,0,306,0,408.11,50,498.53,126.87,554.12L271.5,446.5l2.63,65.06L185,587.12A304.93,304.93,0,0,0,306,612c169,0,306-137,306-306S475,0,306,0ZM464.25,150.46,389,150.05l-.36,260.86-106,96.8-2.25-68.26,46.37-38.61.68-232.42-.59-18.7-50.85-.28.29,216.41H217v-207H198.18v207h-16.5V123.36H465.31Z"/></g></g></svg>